<?xml version="1.0" encoding="iso-8859-1"?>
<!-- Generator: Adobe Illustrator 16.0.0, SVG Export Plug-In . SVG Version: 6.00 Build 0)  -->
<!DOCTYPE svg PUBLIC "-//W3C//DTD SVG 1.1//EN" "http://www.w3.org/Graphics/SVG/1.1/DTD/svg11.dtd">
<svg version="1.1" id="Capa_1" xmlns="http://www.w3.org/2000/svg" xmlns:xlink="http://www.w3.org/1999/xlink" x="0px" y="0px"
	 width="921.701px" height="921.7px" viewBox="0 0 921.701 921.7" style="enable-background:new 0 0 921.701 921.7;"
	 xml:space="preserve">
<g>
	<g>
		<path d="M623.55,381.8c-19.4,8.9-39.4,16.3-59.8,21.9c-13.7,3.8-27.601,6.8-41.7,9.1l-54.2,59.3c-3.8,4.101-10.3,4.101-14.1,0
			l-54.101-59.2c-14-2.199-27.899-5.199-41.5-8.899c-20.399-5.601-40.5-12.9-60-21.8l98.7,330.3h127.9L623.55,381.8z"/>
		<path d="M669.45,846.2H645.05v-96.7c0-6.601-5.4-12-12-12h-348.4c-6.6,0-12,5.399-12,12v96.7h-24.4c-6.6,0-12,5.399-12,12v51.5
			c0,6.6,5.4,12,12,12h421.2c6.601,0,12-5.4,12-12v-51.5C681.35,851.6,676.05,846.2,669.45,846.2z"/>
		<path d="M461.15,0c-0.2,0-0.5,0-0.7,0c-132.3,0.2-249.3,72-320.899,182c-5.9,9.1-5.9,20.8,0.1,29.9
			c38.3,58.4,89.5,105.9,148.8,137.5c26.101,13.9,53.7,24.7,82.601,32.1c28.7,7.3,58.7,11.2,89.5,11.2c0.2,0,0.5,0,0.7,0
			c30.8-0.101,60.8-4,89.6-11.4c28.9-7.4,56.5-18.3,82.5-32.3c59.5-31.9,110.6-79.6,148.8-138.3c5.9-9.1,5.9-20.8-0.1-29.9
			C710.15,71.3,593.15,0,461.15,0z M480.95,228c0,11-8.899,20-20,20l0,0c-11,0-20-8.9-20-20v-11.7l-94.1,0.2v11.7c0,11-8.9,20-20,20
			l0,0c-11,0-20-8.9-20-20l-0.1-63.3c0-11,8.899-20,20-20l0,0c11,0,20,8.9,20,20v11.7l94.1-0.2v-11.7c0-11,8.9-20,20-20
			c11,0,20,8.9,20,20v11.7l94.1-0.2v-19.4c0-11,8.9-20,20-20l0,0c11,0,20,8.9,20,20l0.101,78.9c0,11-8.9,20-20,20l0,0
			c-11,0-20-8.9-20-20v-19.4l-94.101,0.2V228z"/>
	</g>
</g>
<g>
</g>
<g>
</g>
<g>
</g>
<g>
</g>
<g>
</g>
<g>
</g>
<g>
</g>
<g>
</g>
<g>
</g>
<g>
</g>
<g>
</g>
<g>
</g>
<g>
</g>
<g>
</g>
<g>
</g>
</svg>
